<svg id="svg" version="1.1" xmlns="http://www.w3.org/2000/svg" xmlns:xlink="http://www.w3.org/1999/xlink" width="400" height="400" viewBox="0, 0, 400,400"><g id="svgg"><path id="path0" d="M91.791 101.875 L 91.831 127.917 200.082 127.958 L 308.333 128.000 308.333 101.917 L 308.333 75.833 200.042 75.833 L 91.750 75.833 91.791 101.875 M93.333 175.333 L 93.333 198.333 111.500 198.333 L 129.667 198.333 129.667 175.333 L 129.667 152.333 111.500 152.333 L 93.333 152.333 93.333 175.333 M152.500 175.333 L 152.500 198.333 170.583 198.333 L 188.667 198.333 188.667 175.333 L 188.667 152.333 170.583 152.333 L 152.500 152.333 152.500 175.333 M211.500 175.333 L 211.500 198.333 229.583 198.333 L 247.667 198.333 247.667 175.333 L 247.667 152.333 229.583 152.333 L 211.500 152.333 211.500 175.333 M270.500 175.333 L 270.500 198.333 288.583 198.333 L 306.667 198.333 306.667 175.333 L 306.667 152.333 288.583 152.333 L 270.500 152.333 270.500 175.333 M93.333 242.250 L 93.333 265.335 111.458 265.292 L 129.583 265.250 129.583 242.250 L 129.583 219.250 111.458 219.208 L 93.333 219.165 93.333 242.250 M152.500 242.250 L 152.500 265.333 170.583 265.333 L 188.667 265.333 188.667 242.250 L 188.667 219.167 170.583 219.167 L 152.500 219.167 152.500 242.250 M211.500 242.250 L 211.500 265.333 229.583 265.333 L 247.667 265.333 247.667 242.250 L 247.667 219.167 229.583 219.167 L 211.500 219.167 211.500 242.250 M270.500 242.250 L 270.500 265.333 288.583 265.333 L 306.667 265.333 306.667 242.250 L 306.667 219.167 288.583 219.167 L 270.500 219.167 270.500 242.250 M93.333 309.167 L 93.333 332.167 111.500 332.167 L 129.667 332.167 129.667 309.167 L 129.667 286.167 111.500 286.167 L 93.333 286.167 93.333 309.167 M152.500 309.167 L 152.500 332.167 170.583 332.167 L 188.667 332.167 188.667 309.167 L 188.667 286.167 170.583 286.167 L 152.500 286.167 152.500 309.167 M211.500 309.167 L 211.500 332.167 229.583 332.167 L 247.667 332.167 247.667 309.167 L 247.667 286.167 229.583 286.167 L 211.500 286.167 211.500 309.167 " stroke="none" fill="#fbaf6d" fill-rule="evenodd"></path><path id="path1" d="M103.276 6.576 C 101.137 7.339,100.864 8.568,101.914 12.693 C 102.990 16.923,103.269 17.383,105.030 17.854 C 107.731 18.577,109.350 16.206,108.437 12.866 C 108.219 12.069,107.832 10.635,107.576 9.680 C 106.835 6.914,105.345 5.839,103.276 6.576 M115.167 14.815 C 111.379 15.892,111.043 16.004,110.473 16.388 C 108.093 17.992,109.246 22.000,112.088 22.000 C 112.657 22.000,117.029 20.925,118.667 20.382 C 121.896 19.313,121.449 14.704,118.073 14.261 C 117.609 14.200,116.757 14.362,115.167 14.815 M101.583 18.574 C 101.492 18.610,100.039 18.997,98.355 19.433 C 96.672 19.869,95.061 20.383,94.776 20.575 C 92.743 21.946,93.005 25.003,95.243 26.020 C 97.046 26.839,104.093 24.731,104.950 23.116 C 106.096 20.958,103.705 17.732,101.583 18.574 M343.917 20.831 C 341.615 21.351,340.681 23.791,342.030 25.760 C 342.293 26.144,343.468 26.926,346.042 28.430 L 349.682 30.557 349.216 30.838 C 348.960 30.993,347.276 31.991,345.474 33.056 C 341.260 35.548,340.590 36.607,341.836 38.808 C 343.083 41.010,344.449 40.905,349.010 38.254 C 350.884 37.166,353.579 35.601,355.000 34.776 C 358.574 32.702,359.000 32.241,359.000 30.457 C 359.000 28.741,358.910 28.667,351.849 24.537 C 345.575 20.867,344.983 20.591,343.917 20.831 M107.874 22.497 C 105.143 23.143,104.941 24.653,106.747 30.942 C 107.585 33.862,109.252 34.881,111.450 33.817 C 113.199 32.970,113.398 31.760,112.420 27.917 C 111.157 22.955,110.292 21.925,107.874 22.497 M73.750 42.566 C 71.336 43.330,69.319 45.489,68.455 48.235 L 68.083 49.417 68.083 204.333 C 68.083 356.051,68.090 359.269,68.400 360.167 C 69.309 362.800,71.690 364.970,74.250 365.499 C 74.819 365.616,114.686 365.657,200.083 365.627 L 325.083 365.583 326.289 365.143 C 328.759 364.239,330.380 362.879,331.361 360.885 L 331.917 359.757 331.967 204.837 C 332.005 87.925,331.970 49.692,331.824 49.000 C 331.195 46.014,328.633 43.385,325.576 42.589 C 324.231 42.238,74.857 42.216,73.750 42.566 M324.794 48.971 C 325.093 49.185,325.450 49.575,325.586 49.838 C 326.006 50.652,325.956 358.170,325.536 358.551 C 325.372 358.699,324.962 358.936,324.624 359.077 C 324.074 359.307,311.182 359.333,199.604 359.333 L 75.196 359.333 74.765 358.821 L 74.333 358.308 74.333 204.361 C 74.333 104.740,74.391 50.214,74.496 49.847 C 74.585 49.535,74.824 49.104,75.025 48.890 L 75.392 48.499 199.821 48.541 L 324.250 48.583 324.794 48.971 M87.224 69.843 C 86.844 70.031,86.319 70.493,86.058 70.870 L 85.583 71.555 85.538 101.569 C 85.487 134.507,85.426 132.387,86.464 133.382 C 86.715 133.623,87.249 133.936,87.648 134.077 C 88.578 134.405,311.068 134.474,312.250 134.147 C 313.173 133.891,313.783 133.419,314.170 132.659 C 314.565 131.886,314.704 72.041,314.313 71.281 C 313.998 70.668,313.279 69.985,312.688 69.736 C 312.205 69.533,296.417 69.500,200.021 69.500 L 87.917 69.500 87.224 69.843 M308.333 101.917 L 308.333 128.000 200.000 128.000 L 91.667 128.000 91.667 101.917 L 91.667 75.833 200.000 75.833 L 308.333 75.833 308.333 101.917 M88.914 146.231 C 88.292 146.503,87.382 147.518,87.211 148.128 C 86.912 149.197,87.063 202.379,87.366 202.934 C 87.716 203.572,88.713 204.464,89.211 204.586 C 89.416 204.635,99.570 204.655,111.776 204.630 L 133.969 204.583 134.592 204.079 C 135.955 202.976,135.833 205.787,135.833 175.333 C 135.833 144.880,135.955 147.690,134.592 146.588 L 133.969 146.083 111.693 146.047 C 93.537 146.018,89.324 146.052,88.914 146.231 M147.801 146.340 C 147.462 146.519,146.974 146.941,146.717 147.278 L 146.250 147.891 146.250 175.347 L 146.250 202.802 146.754 203.425 C 147.851 204.781,145.666 204.667,170.581 204.666 C 195.543 204.665,193.214 204.790,194.272 203.402 L 194.750 202.776 194.750 175.320 L 194.750 147.864 194.238 147.224 C 193.174 145.893,195.261 146.000,170.500 146.008 C 148.926 146.015,148.402 146.022,147.801 146.340 M206.917 146.312 C 206.123 146.678,205.768 147.050,205.423 147.876 C 205.196 148.419,205.167 151.551,205.170 175.370 C 205.174 205.618,205.063 203.062,206.427 204.103 L 207.057 204.583 229.365 204.627 C 254.297 204.675,252.437 204.759,253.300 203.545 C 254.028 202.522,254.017 202.993,253.966 175.000 C 253.910 144.811,254.037 147.470,252.611 146.527 L 251.941 146.083 229.762 146.044 C 208.521 146.007,207.555 146.018,206.917 146.312 M266.167 146.187 C 265.628 146.401,264.878 147.116,264.527 147.750 C 264.188 148.362,264.005 201.115,264.338 202.350 C 264.538 203.094,265.326 204.068,266.016 204.425 C 266.417 204.632,269.616 204.667,288.619 204.667 C 313.610 204.667,311.391 204.790,312.417 203.343 L 312.917 202.638 312.917 175.348 L 312.917 148.059 312.458 147.366 C 311.472 145.876,313.624 145.999,288.632 146.011 C 274.438 146.017,266.435 146.080,266.167 146.187 M129.667 175.333 L 129.667 198.333 111.500 198.333 L 93.333 198.333 93.333 175.333 L 93.333 152.333 111.500 152.333 L 129.667 152.333 129.667 175.333 M188.667 175.333 L 188.667 198.333 170.500 198.333 L 152.333 198.333 152.333 175.333 L 152.333 152.333 170.500 152.333 L 188.667 152.333 188.667 175.333 M247.833 175.333 L 247.833 198.333 229.583 198.333 L 211.333 198.333 211.333 175.333 L 211.333 152.333 229.583 152.333 L 247.833 152.333 247.833 175.333 M306.833 175.333 L 306.833 198.333 288.667 198.333 L 270.500 198.333 270.500 175.333 L 270.500 152.333 288.667 152.333 L 306.833 152.333 306.833 175.333 M39.500 184.094 C 38.537 184.396,37.214 184.799,36.559 184.990 L 35.367 185.337 35.613 186.127 C 35.748 186.561,36.125 187.817,36.450 188.917 C 36.775 190.017,37.054 190.933,37.070 190.952 C 37.085 190.971,38.220 190.645,39.591 190.226 C 40.962 189.807,42.253 189.426,42.461 189.379 C 42.668 189.332,42.871 189.240,42.912 189.174 C 42.973 189.075,41.403 183.662,41.287 183.574 C 41.267 183.558,40.462 183.792,39.500 184.094 M348.282 185.996 C 337.814 187.895,335.844 201.932,345.406 206.495 C 354.397 210.786,363.893 201.102,359.587 192.034 C 357.584 187.818,352.680 185.199,348.282 185.996 M45.943 188.335 C 44.491 188.779,43.267 189.177,43.224 189.221 C 43.158 189.287,44.636 194.627,44.771 194.811 C 44.796 194.844,45.551 194.643,46.450 194.365 C 47.348 194.086,48.646 193.694,49.333 193.495 C 50.021 193.295,50.600 193.116,50.621 193.097 C 50.642 193.079,50.480 192.468,50.261 191.740 C 50.042 191.012,49.666 189.760,49.426 188.958 C 49.178 188.130,48.902 187.506,48.786 187.515 C 48.675 187.523,47.395 187.892,45.943 188.335 M33.885 191.974 C 32.493 192.401,31.307 192.799,31.249 192.858 C 31.174 192.937,32.574 198.162,32.750 198.457 C 32.771 198.491,38.496 196.816,38.633 196.736 C 38.660 196.720,38.447 195.929,38.159 194.979 C 37.872 194.028,37.511 192.800,37.358 192.250 C 37.008 190.992,37.071 190.997,33.885 191.974 M351.754 192.479 C 354.637 193.789,355.236 197.770,352.889 200.034 C 350.138 202.688,345.432 200.558,345.450 196.667 C 345.465 193.411,348.853 191.161,351.754 192.479 M41.614 195.887 L 38.811 196.746 38.911 197.279 C 38.966 197.572,39.150 198.248,39.321 198.781 C 39.491 199.314,39.798 200.313,40.004 201.000 C 40.210 201.688,40.397 202.273,40.420 202.301 C 40.444 202.329,41.128 202.154,41.940 201.911 C 42.752 201.669,44.046 201.292,44.815 201.073 C 45.583 200.855,46.248 200.641,46.291 200.598 C 46.428 200.461,44.757 195.000,44.583 195.015 C 44.492 195.022,43.155 195.415,41.614 195.887 M88.822 213.219 C 88.416 213.433,87.858 213.928,87.583 214.319 L 87.083 215.029 87.083 242.139 L 87.083 269.250 87.458 269.951 C 87.692 270.389,88.105 270.812,88.556 271.076 L 89.279 271.500 111.481 271.500 C 135.667 271.500,134.078 271.564,135.031 270.557 C 135.861 269.679,135.833 270.669,135.833 242.208 L 135.833 215.272 135.480 214.542 C 135.267 214.102,134.857 213.633,134.450 213.364 L 133.774 212.917 111.668 212.873 L 89.561 212.829 88.822 213.219 M148.299 212.997 C 147.561 213.221,146.848 213.819,146.496 214.507 C 146.102 215.280,145.963 268.960,146.354 269.719 C 146.630 270.257,147.354 270.997,147.867 271.265 C 148.541 271.617,192.459 271.617,193.133 271.265 C 193.738 270.949,194.439 270.189,194.656 269.614 C 194.779 269.290,194.833 260.818,194.833 242.149 C 194.833 211.546,194.967 214.368,193.467 213.375 L 192.774 212.917 170.762 212.888 C 158.655 212.873,148.547 212.922,148.299 212.997 M207.199 213.044 C 206.397 213.301,205.372 214.534,205.251 215.389 C 205.197 215.771,205.174 228.127,205.201 242.846 L 205.250 269.609 205.728 270.236 C 206.786 271.623,204.436 271.499,229.586 271.499 L 251.923 271.500 252.528 271.089 C 252.860 270.863,253.309 270.394,253.525 270.047 L 253.917 269.417 253.960 242.609 C 253.991 224.026,253.949 215.598,253.826 215.141 C 253.589 214.258,252.670 213.270,251.862 213.028 C 250.985 212.765,208.022 212.780,207.199 213.044 M266.338 213.019 C 265.667 213.287,264.853 213.980,264.541 214.550 C 264.267 215.052,264.250 216.698,264.250 242.250 L 264.250 269.417 264.644 270.046 C 264.860 270.392,265.355 270.860,265.742 271.087 L 266.446 271.500 288.648 271.500 C 312.613 271.500,311.267 271.549,312.117 270.639 C 313.053 269.636,313.000 271.331,312.996 242.214 C 312.993 216.486,312.980 215.390,312.684 214.750 C 312.307 213.936,311.606 213.275,310.850 213.023 C 310.110 212.775,266.958 212.771,266.338 213.019 M129.667 242.250 L 129.667 265.333 111.500 265.333 L 93.333 265.333 93.333 242.250 L 93.333 219.167 111.500 219.167 L 129.667 219.167 129.667 242.250 M188.667 242.250 L 188.667 265.333 170.500 265.333 L 152.333 265.333 152.333 242.250 L 152.333 219.167 170.500 219.167 L 188.667 219.167 188.667 242.250 M247.750 242.250 L 247.750 265.250 229.583 265.250 L 211.417 265.250 211.374 242.417 C 211.350 229.858,211.367 219.489,211.411 219.374 C 211.474 219.208,215.204 219.174,229.620 219.208 L 247.750 219.250 247.750 242.250 M306.833 242.250 L 306.833 265.333 288.667 265.333 L 270.500 265.333 270.500 242.250 L 270.500 219.167 288.667 219.167 L 306.833 219.167 306.833 242.250 M89.557 279.826 C 88.652 280.042,87.933 280.572,87.500 281.342 L 87.083 282.083 87.083 309.167 L 87.083 336.250 87.479 336.886 C 87.696 337.236,88.178 337.724,88.550 337.970 L 89.226 338.417 110.654 338.467 C 136.081 338.527,134.590 338.631,135.505 336.740 C 135.889 335.946,136.036 282.726,135.656 281.719 C 135.363 280.942,134.493 280.178,133.599 279.912 C 132.696 279.644,90.666 279.562,89.557 279.826 M148.354 279.915 C 147.566 280.162,146.776 280.817,146.402 281.533 C 146.202 281.915,146.167 286.082,146.167 309.094 L 146.167 336.205 146.540 336.869 C 146.761 337.262,147.220 337.713,147.665 337.975 L 148.417 338.417 170.596 338.417 L 192.774 338.417 193.467 337.958 C 194.967 336.965,194.833 339.788,194.833 309.184 C 194.833 290.516,194.779 282.044,194.656 281.719 C 194.436 281.137,193.744 280.393,193.083 280.027 C 192.388 279.642,149.565 279.534,148.354 279.915 M207.500 279.861 C 206.629 280.111,205.833 280.793,205.479 281.593 C 205.173 282.283,205.165 283.141,205.207 309.387 L 205.250 336.469 205.768 337.110 C 206.930 338.548,204.544 338.417,229.583 338.417 C 254.195 338.417,252.237 338.507,253.226 337.332 C 254.021 336.386,254.006 336.965,253.960 308.697 L 253.917 281.862 253.417 281.154 C 252.333 279.620,254.533 279.754,229.833 279.722 C 215.718 279.704,207.879 279.753,207.500 279.861 M266.750 279.823 C 265.841 280.044,265.171 280.500,264.707 281.213 L 264.250 281.917 264.250 309.083 C 264.250 339.926,264.100 336.827,265.647 337.914 L 266.362 338.417 288.389 338.417 C 300.504 338.417,310.617 338.360,310.862 338.292 C 311.531 338.104,312.343 337.347,312.687 336.590 C 313.168 335.530,313.163 282.625,312.681 281.564 C 312.315 280.758,311.516 280.105,310.583 279.851 C 309.821 279.642,267.602 279.615,266.750 279.823 M129.667 309.167 L 129.667 332.167 111.500 332.167 L 93.333 332.167 93.333 309.167 L 93.333 286.167 111.500 286.167 L 129.667 286.167 129.667 309.167 M188.667 309.167 L 188.667 332.167 170.500 332.167 L 152.333 332.167 152.333 309.167 L 152.333 286.167 170.500 286.167 L 188.667 286.167 188.667 309.167 M247.833 309.167 L 247.833 332.167 229.583 332.167 L 211.333 332.167 211.333 309.167 L 211.333 286.167 229.583 286.167 L 247.833 286.167 247.833 309.167 M306.833 309.167 L 306.833 332.167 288.667 332.167 L 270.500 332.167 270.500 309.167 L 270.500 286.167 288.667 286.167 L 306.833 286.167 306.833 309.167 M98.059 368.235 C 93.471 369.140,90.512 373.744,91.587 378.304 C 93.599 386.841,105.531 386.908,107.749 378.395 C 109.254 372.615,103.966 367.069,98.059 368.235 M100.650 374.575 C 102.182 375.367,102.064 377.585,100.448 378.388 C 99.653 378.784,98.984 378.640,98.261 377.917 C 96.594 376.249,98.562 373.495,100.650 374.575 M310.410 376.480 C 307.982 377.583,307.974 381.081,310.397 382.181 C 311.464 382.666,328.213 382.661,329.281 382.176 C 331.112 381.345,331.673 378.857,330.378 377.317 C 329.400 376.155,329.571 376.174,319.833 376.174 C 311.700 376.174,311.036 376.196,310.410 376.480 M281.207 384.808 C 278.233 385.665,278.531 390.178,281.606 390.835 C 282.943 391.121,317.799 390.981,318.333 390.688 C 320.813 389.327,320.788 385.966,318.291 384.923 C 317.651 384.656,282.118 384.546,281.207 384.808 " stroke="none" fill="#5c1027" fill-rule="evenodd"></path><path id="path2" d="M0.000 200.000 L 0.000 400.000 200.000 400.000 L 400.000 400.000 400.000 200.000 L 400.000 0.000 200.000 0.000 L 0.000 0.000 0.000 200.000 M105.599 6.602 C 106.906 7.222,107.255 7.963,108.424 12.602 C 108.892 14.459,108.950 14.897,108.811 15.515 C 108.229 18.105,105.021 18.858,103.272 16.814 C 102.565 15.988,101.063 10.366,101.208 9.084 C 101.441 7.012,103.733 5.717,105.599 6.602 M118.961 14.425 C 121.218 15.367,121.697 18.448,119.810 19.880 C 118.941 20.540,112.555 22.267,111.724 22.067 C 109.035 21.420,108.166 17.876,110.320 16.343 C 111.743 15.330,117.872 13.969,118.961 14.425 M103.632 18.816 C 105.771 19.908,105.937 22.944,103.932 24.293 C 103.321 24.703,97.346 26.379,96.493 26.379 C 94.186 26.379,92.645 23.861,93.664 21.756 C 94.253 20.538,94.751 20.274,98.086 19.410 C 99.734 18.983,101.115 18.604,101.153 18.567 C 101.364 18.364,103.085 18.536,103.632 18.816 M350.119 23.423 C 357.735 27.883,358.035 28.070,358.430 28.586 C 359.387 29.839,359.315 31.645,358.266 32.733 C 357.496 33.531,345.745 40.291,344.892 40.427 C 341.988 40.889,340.092 36.952,342.271 34.984 C 342.535 34.747,343.688 34.001,344.833 33.328 C 345.979 32.655,347.500 31.752,348.213 31.321 L 349.509 30.537 346.296 28.665 C 344.529 27.635,342.839 26.610,342.540 26.387 C 340.061 24.534,341.676 20.468,344.786 20.734 C 345.546 20.799,346.217 21.137,350.119 23.423 M109.952 22.684 C 111.247 23.311,111.361 23.557,112.657 28.546 C 113.534 31.925,113.013 33.564,110.870 34.159 C 108.135 34.919,106.770 32.939,105.474 26.333 C 104.937 23.596,107.508 21.501,109.952 22.684 M324.833 42.344 C 327.660 42.800,330.453 45.017,331.541 47.667 L 331.917 48.583 331.917 204.254 L 331.917 359.924 331.373 361.028 C 330.393 363.019,328.229 364.674,325.583 365.455 C 324.393 365.806,77.616 366.021,74.917 365.673 C 71.767 365.267,69.020 362.815,68.188 359.667 C 68.036 359.089,68.001 323.301,68.037 204.000 L 68.083 49.083 68.533 47.853 C 69.566 45.024,71.847 42.808,74.205 42.343 C 75.294 42.129,323.504 42.130,324.833 42.344 M74.944 49.165 C 74.292 49.940,74.317 43.169,74.368 204.974 L 74.417 358.532 74.917 358.932 L 75.417 359.332 199.583 359.325 C 303.884 359.320,323.852 359.282,324.386 359.092 C 324.736 358.967,325.167 358.734,325.344 358.573 C 325.819 358.144,325.857 50.457,325.382 49.653 C 325.226 49.389,324.858 49.058,324.565 48.919 C 324.091 48.694,310.462 48.667,199.698 48.667 L 75.363 48.667 74.944 49.165 M312.163 69.514 C 313.145 69.740,313.963 70.382,314.348 71.231 C 314.648 71.892,314.659 72.975,314.663 101.840 L 314.667 131.763 314.292 132.497 C 314.085 132.900,313.628 133.460,313.276 133.740 L 312.636 134.250 200.288 134.292 L 87.941 134.334 87.209 133.980 C 86.768 133.767,86.300 133.358,86.031 132.950 L 85.583 132.274 85.536 102.262 C 85.510 85.755,85.532 72.005,85.586 71.705 C 85.754 70.761,86.813 69.754,87.917 69.488 C 88.742 69.289,311.298 69.314,312.163 69.514 M134.250 146.265 C 134.665 146.482,135.106 146.918,135.417 147.419 L 135.917 148.224 135.960 175.119 L 136.003 202.015 135.650 202.834 C 135.301 203.646,134.686 204.239,133.784 204.631 C 132.900 205.015,89.759 204.907,88.917 204.518 C 88.110 204.146,87.602 203.618,87.258 202.795 C 86.820 201.746,86.878 148.701,87.319 147.731 C 87.653 146.995,88.519 146.232,89.281 146.002 C 90.472 145.641,133.539 145.893,134.250 146.265 M193.386 146.312 C 193.736 146.530,194.224 147.012,194.470 147.383 L 194.917 148.059 194.917 175.348 L 194.917 202.638 194.417 203.348 C 194.142 203.738,193.585 204.233,193.179 204.447 L 192.441 204.837 170.429 204.793 C 145.435 204.744,147.667 204.880,146.583 203.346 L 146.083 202.638 146.039 175.611 C 146.006 154.870,146.042 148.467,146.196 148.083 C 146.645 146.961,147.302 146.392,148.667 145.940 C 148.804 145.894,158.779 145.871,170.833 145.887 L 192.750 145.917 193.386 146.312 M252.316 146.250 C 252.627 146.433,253.114 146.872,253.399 147.224 L 253.917 147.864 253.917 175.333 L 253.917 202.802 253.407 203.443 C 253.127 203.795,252.567 204.252,252.163 204.458 L 251.429 204.833 229.656 204.833 C 206.247 204.833,207.193 204.870,206.194 203.936 C 204.983 202.804,205.088 205.380,205.039 175.760 C 204.990 146.251,204.930 147.951,206.056 146.860 C 207.165 145.785,205.771 145.842,229.833 145.881 C 251.417 145.916,251.759 145.922,252.316 146.250 M310.713 146.010 C 311.438 146.211,312.408 147.004,312.759 147.683 C 312.966 148.085,313.000 151.928,313.000 175.375 L 313.000 202.600 312.552 203.290 C 312.289 203.696,311.782 204.156,311.321 204.407 L 310.538 204.833 288.644 204.830 C 264.443 204.826,266.046 204.895,265.050 203.811 C 264.114 202.793,264.166 204.505,264.170 175.297 C 264.174 149.404,264.185 148.391,264.486 147.731 C 264.840 146.950,265.749 146.184,266.544 145.996 C 267.408 145.790,309.972 145.804,310.713 146.010 M41.923 185.341 C 42.222 186.299,42.606 187.542,42.775 188.102 L 43.083 189.120 45.833 188.294 C 47.346 187.840,48.690 187.456,48.820 187.442 C 49.102 187.412,50.792 192.956,50.560 193.150 C 50.481 193.215,49.179 193.633,47.667 194.079 C 46.154 194.524,44.892 194.907,44.861 194.930 C 44.811 194.968,45.712 198.086,46.274 199.814 C 46.567 200.715,46.843 200.532,43.818 201.437 C 39.882 202.615,40.460 202.895,39.400 199.296 C 39.056 198.130,38.728 197.099,38.670 197.006 C 38.604 196.899,37.833 197.056,36.575 197.433 C 35.479 197.761,34.188 198.146,33.705 198.289 C 33.222 198.432,32.789 198.511,32.743 198.465 C 32.561 198.284,31.043 192.910,31.143 192.804 C 31.202 192.742,32.513 192.317,34.056 191.859 C 35.599 191.401,36.888 191.001,36.920 190.969 C 36.951 190.937,36.751 190.163,36.475 189.247 C 35.712 186.724,35.315 185.294,35.369 185.263 C 35.578 185.140,41.116 183.533,41.231 183.561 C 41.312 183.582,41.623 184.382,41.923 185.341 M353.167 186.314 C 360.847 188.753,363.225 198.594,357.520 204.332 C 350.522 211.371,338.804 206.200,339.206 196.250 C 339.496 189.075,346.396 184.164,353.167 186.314 M41.917 189.586 C 41.550 189.707,40.358 190.073,39.268 190.399 C 38.179 190.724,37.249 191.029,37.203 191.075 C 37.130 191.148,38.622 196.484,38.759 196.641 C 38.787 196.672,39.658 196.433,40.696 196.110 C 41.734 195.786,43.033 195.395,43.583 195.240 C 44.133 195.086,44.609 194.937,44.640 194.909 C 44.670 194.882,44.333 193.616,43.890 192.097 C 43.017 189.105,43.090 189.199,41.917 189.586 M348.410 192.432 C 345.148 193.590,344.485 198.113,347.266 200.237 C 350.332 202.577,354.736 200.009,354.279 196.147 C 353.939 193.275,351.099 191.477,348.410 192.432 M134.610 213.434 C 136.055 214.603,135.917 211.544,135.917 242.277 L 135.917 269.471 135.414 270.194 C 135.121 270.617,134.604 271.072,134.171 271.292 L 133.429 271.667 111.543 271.667 C 87.788 271.667,89.024 271.713,88.028 270.784 C 86.909 269.740,86.992 272.178,87.040 242.033 L 87.083 214.892 87.493 214.294 C 87.719 213.965,88.204 213.501,88.571 213.263 L 89.239 212.830 111.604 212.873 L 133.969 212.917 134.610 213.434 M193.472 213.291 C 193.935 213.591,194.319 214.031,194.589 214.573 L 195.000 215.399 195.000 242.205 C 195.000 271.330,195.053 269.627,194.117 270.645 C 193.121 271.728,194.728 271.659,170.500 271.659 C 146.272 271.659,147.879 271.728,146.883 270.645 C 145.947 269.627,146.000 271.331,146.004 242.214 C 146.008 212.560,145.931 214.718,147.020 213.719 C 148.048 212.777,146.489 212.835,170.592 212.834 L 192.767 212.833 193.472 213.291 M252.298 213.149 C 253.006 213.510,253.346 213.859,253.730 214.617 C 253.976 215.102,254.000 217.589,254.000 242.164 C 254.000 271.518,254.058 269.744,253.071 270.721 C 252.061 271.722,253.438 271.667,229.506 271.667 L 207.552 271.667 206.818 271.279 C 206.335 271.024,205.912 270.614,205.583 270.083 L 205.083 269.276 205.036 242.680 C 204.986 214.543,204.972 215.090,205.771 214.041 C 206.758 212.746,204.721 212.849,229.548 212.841 C 250.944 212.834,251.700 212.844,252.298 213.149 M311.298 213.149 C 312.006 213.510,312.346 213.859,312.730 214.617 C 312.976 215.102,313.000 217.596,313.000 242.250 C 313.000 272.076,313.076 269.863,312.017 270.800 C 310.987 271.712,312.228 271.667,288.555 271.667 C 264.691 271.667,266.242 271.726,265.192 270.772 C 264.082 269.763,264.167 272.130,264.167 242.226 C 264.167 211.501,264.020 214.403,265.623 213.342 L 266.390 212.833 288.535 212.833 C 309.936 212.833,310.701 212.844,311.298 213.149 M134.090 279.980 C 134.912 280.353,135.596 281.134,135.826 281.964 C 136.065 282.824,136.065 335.343,135.826 336.203 C 135.604 337.002,134.958 337.763,134.152 338.174 C 133.299 338.609,90.005 338.694,88.972 338.262 C 88.246 337.959,87.541 337.254,87.238 336.528 C 86.812 335.510,86.889 282.369,87.317 281.535 C 87.710 280.769,88.244 280.261,89.001 279.932 C 89.989 279.504,133.143 279.550,134.090 279.980 M192.961 279.925 C 193.785 280.269,194.313 280.777,194.685 281.583 C 195.123 282.532,195.177 335.420,194.741 336.464 C 194.410 337.258,193.735 337.964,193.021 338.264 C 192.015 338.687,148.700 338.609,147.868 338.183 C 147.087 337.782,146.586 337.247,146.258 336.461 C 145.865 335.522,145.865 282.645,146.258 281.705 C 146.602 280.882,147.110 280.354,147.917 279.982 C 148.863 279.545,191.922 279.490,192.961 279.925 M252.519 280.158 C 252.851 280.382,253.301 280.827,253.519 281.146 L 253.917 281.726 253.960 308.950 C 254.009 339.829,254.140 336.962,252.634 337.958 L 251.941 338.417 229.790 338.460 C 204.948 338.509,206.765 338.596,205.786 337.311 C 204.969 336.239,204.986 336.864,205.036 308.654 L 205.083 282.057 205.583 281.250 C 205.913 280.718,206.335 280.309,206.822 280.052 L 207.561 279.662 229.739 279.706 L 251.917 279.750 252.519 280.158 M311.300 280.024 C 311.790 280.262,312.199 280.636,312.519 281.140 L 313.000 281.899 313.000 309.039 C 313.000 339.965,313.150 336.989,311.540 338.010 L 310.762 338.504 288.492 338.460 L 266.221 338.417 265.533 337.940 C 264.035 336.902,264.167 339.676,264.167 309.107 C 264.167 279.199,264.081 281.588,265.193 280.551 C 266.176 279.634,264.931 279.680,288.656 279.673 L 310.561 279.667 311.300 280.024 M101.743 368.255 C 107.267 369.694,109.771 376.110,106.709 380.978 C 102.434 387.771,91.891 385.092,91.386 377.083 C 91.014 371.207,96.178 366.806,101.743 368.255 M99.006 374.555 C 96.988 375.236,97.412 378.214,99.561 378.456 C 100.284 378.538,100.369 378.503,100.998 377.874 C 102.567 376.305,101.094 373.850,99.006 374.555 M329.466 376.524 C 331.735 377.622,331.712 381.056,329.429 382.161 C 328.314 382.701,311.327 382.688,310.208 382.146 C 307.984 381.070,307.976 377.623,310.195 376.524 C 311.325 375.965,328.311 375.965,329.466 376.524 M318.434 384.866 C 320.803 386.164,320.839 389.473,318.497 390.668 C 317.635 391.108,282.010 391.198,280.979 390.763 C 278.090 389.545,278.499 385.416,281.583 384.654 C 282.766 384.362,317.882 384.564,318.434 384.866 " stroke="none" fill="#fbfbfb" fill-rule="evenodd"></path><path id="path3" d="M120.875 17.417 C 120.877 17.783,120.911 17.914,120.951 17.706 C 120.991 17.499,120.990 17.199,120.948 17.040 C 120.906 16.880,120.874 17.050,120.875 17.417 M137.292 42.292 C 171.506 42.315,227.494 42.315,261.708 42.292 C 295.923 42.269,267.929 42.250,199.500 42.250 C 131.071 42.250,103.077 42.269,137.292 42.292 M314.582 101.833 C 314.582 118.287,314.601 125.019,314.625 116.792 C 314.649 108.565,314.649 95.102,314.625 86.875 C 314.601 78.648,314.582 85.379,314.582 101.833 M100.708 145.958 C 106.644 145.983,116.356 145.983,122.292 145.958 C 128.227 145.934,123.371 145.914,111.500 145.914 C 99.629 145.914,94.773 145.934,100.708 145.958 M159.708 145.958 C 165.644 145.983,175.356 145.983,181.292 145.958 C 187.227 145.934,182.371 145.914,170.500 145.914 C 158.629 145.914,153.773 145.934,159.708 145.958 M218.695 145.958 C 224.624 145.983,234.374 145.983,240.362 145.958 C 246.350 145.934,241.500 145.914,229.583 145.914 C 217.667 145.914,212.767 145.934,218.695 145.958 M277.875 145.958 C 283.810 145.983,293.523 145.983,299.458 145.958 C 305.394 145.934,300.537 145.914,288.667 145.914 C 276.796 145.914,271.940 145.934,277.875 145.958 M146.081 175.333 C 146.081 190.046,146.101 196.065,146.125 188.708 C 146.149 181.352,146.149 169.315,146.125 161.958 C 146.101 154.602,146.081 160.621,146.081 175.333 M194.915 175.333 C 194.915 190.046,194.934 196.065,194.958 188.708 C 194.982 181.352,194.982 169.315,194.958 161.958 C 194.934 154.602,194.915 160.621,194.915 175.333 M135.915 175.333 C 135.915 189.954,135.934 195.935,135.958 188.625 C 135.982 181.315,135.982 169.352,135.958 162.042 C 135.934 154.731,135.915 160.712,135.915 175.333 M152.414 175.333 C 152.414 188.029,152.434 193.223,152.458 186.875 C 152.482 180.527,152.482 170.140,152.458 163.792 C 152.434 157.444,152.414 162.637,152.414 175.333 M211.414 175.333 C 211.414 188.029,211.434 193.223,211.458 186.875 C 211.482 180.527,211.482 170.140,211.458 163.792 C 211.434 157.444,211.414 162.637,211.414 175.333 M247.748 175.333 C 247.748 188.029,247.767 193.223,247.792 186.875 C 247.816 180.527,247.816 170.140,247.792 163.792 C 247.767 157.444,247.748 162.637,247.748 175.333 M306.748 175.333 C 306.748 188.029,306.767 193.223,306.792 186.875 C 306.816 180.527,306.816 170.140,306.792 163.792 C 306.767 157.444,306.748 162.637,306.748 175.333 M100.625 204.792 C 106.606 204.816,116.394 204.816,122.375 204.792 C 128.356 204.767,123.462 204.748,111.500 204.748 C 99.537 204.748,94.644 204.767,100.625 204.792 M159.625 204.792 C 165.606 204.816,175.394 204.816,181.375 204.792 C 187.356 204.767,182.463 204.748,170.500 204.748 C 158.537 204.748,153.644 204.767,159.625 204.792 M218.721 204.792 C 224.756 204.816,234.581 204.816,240.555 204.792 C 246.529 204.767,241.592 204.748,229.583 204.748 C 217.575 204.748,212.687 204.767,218.721 204.792 M277.792 204.792 C 283.773 204.816,293.560 204.816,299.542 204.792 C 305.523 204.767,300.629 204.748,288.667 204.748 C 276.704 204.748,271.810 204.767,277.792 204.792 M146.081 242.250 C 146.081 257.008,146.101 263.021,146.125 255.612 C 146.149 248.203,146.149 236.128,146.125 228.779 C 146.101 221.430,146.081 227.492,146.081 242.250 M194.915 242.250 C 194.915 257.008,194.934 263.021,194.958 255.612 C 194.982 248.203,194.982 236.128,194.958 228.779 C 194.934 221.430,194.915 227.492,194.915 242.250 M135.915 242.250 C 135.915 256.917,135.934 262.892,135.958 255.529 C 135.982 248.165,135.982 236.165,135.958 228.862 C 135.934 221.559,135.915 227.583,135.915 242.250 M152.414 242.250 C 152.414 254.992,152.434 260.180,152.458 253.779 C 152.482 247.378,152.482 236.953,152.458 230.612 C 152.434 224.271,152.414 229.508,152.414 242.250 M306.748 242.250 C 306.748 254.992,306.767 260.180,306.792 253.779 C 306.816 247.378,306.816 236.953,306.792 230.612 C 306.767 224.271,306.748 229.508,306.748 242.250 M211.414 242.250 C 211.414 254.900,211.434 260.100,211.458 253.805 C 211.482 247.510,211.483 237.160,211.458 230.805 C 211.434 224.450,211.414 229.600,211.414 242.250 M247.748 242.250 C 247.748 254.900,247.767 260.100,247.792 253.805 C 247.816 247.510,247.816 237.160,247.792 230.805 C 247.767 224.450,247.748 229.600,247.748 242.250 M100.555 271.625 C 106.589 271.649,116.414 271.649,122.388 271.625 C 128.362 271.601,123.425 271.581,111.417 271.581 C 99.408 271.581,94.520 271.601,100.555 271.625 M159.721 271.625 C 165.756 271.649,175.581 271.649,181.555 271.625 C 187.529 271.601,182.592 271.581,170.583 271.581 C 158.575 271.581,153.687 271.601,159.721 271.625 M218.721 271.625 C 224.756 271.649,234.581 271.649,240.555 271.625 C 246.529 271.601,241.592 271.581,229.583 271.581 C 217.575 271.581,212.687 271.601,218.721 271.625 M277.721 271.625 C 283.756 271.649,293.581 271.649,299.555 271.625 C 305.529 271.601,300.592 271.581,288.583 271.581 C 276.575 271.581,271.687 271.601,277.721 271.625 M146.081 309.083 C 146.081 323.842,146.101 329.855,146.125 322.445 C 146.149 315.036,146.149 302.961,146.125 295.612 C 146.101 288.263,146.081 294.325,146.081 309.083 M135.915 309.083 C 135.915 323.750,135.934 329.725,135.958 322.362 C 135.982 314.998,135.982 302.998,135.958 295.695 C 135.934 288.392,135.915 294.417,135.915 309.083 M194.915 309.167 C 194.915 323.879,194.934 329.898,194.958 322.542 C 194.982 315.185,194.982 303.148,194.958 295.792 C 194.934 288.435,194.915 294.454,194.915 309.167 M152.414 309.167 C 152.414 321.862,152.434 327.056,152.458 320.708 C 152.482 314.360,152.482 303.973,152.458 297.625 C 152.434 291.277,152.414 296.471,152.414 309.167 M211.414 309.167 C 211.414 321.862,211.434 327.056,211.458 320.708 C 211.482 314.360,211.482 303.973,211.458 297.625 C 211.434 291.277,211.414 296.471,211.414 309.167 M247.748 309.167 C 247.748 321.862,247.767 327.056,247.792 320.708 C 247.816 314.360,247.816 303.973,247.792 297.625 C 247.767 291.277,247.748 296.471,247.748 309.167 M270.500 309.167 L 270.500 332.167 288.667 332.167 L 306.833 332.167 306.833 309.167 L 306.833 286.167 288.667 286.167 L 270.500 286.167 270.500 309.167 " stroke="none" fill="#a4848f" fill-rule="evenodd"></path><path id="path4" d="M359.042 30.583 C 359.044 30.950,359.078 31.080,359.118 30.873 C 359.158 30.666,359.156 30.366,359.115 30.206 C 359.073 30.047,359.040 30.217,359.042 30.583 M344.127 40.451 C 344.334 40.491,344.634 40.490,344.794 40.448 C 344.953 40.406,344.783 40.374,344.417 40.375 C 344.050 40.377,343.920 40.411,344.127 40.451 M137.445 48.625 C 171.560 48.648,227.435 48.648,261.611 48.625 C 295.788 48.602,267.875 48.583,199.583 48.583 C 131.292 48.583,103.329 48.602,137.445 48.625 M325.750 204.250 C 325.750 288.950,325.769 323.575,325.792 281.195 C 325.815 238.814,325.815 169.514,325.792 127.195 C 325.769 84.875,325.750 119.550,325.750 204.250 M144.125 69.458 C 174.856 69.482,225.144 69.482,255.875 69.458 C 286.606 69.435,261.462 69.416,200.000 69.416 C 138.537 69.416,113.394 69.435,144.125 69.458 M91.748 101.833 C 91.748 116.087,91.768 121.919,91.792 114.792 C 91.816 107.665,91.816 96.002,91.792 88.875 C 91.768 81.748,91.748 87.579,91.748 101.833 M205.081 175.333 C 205.081 189.954,205.101 195.935,205.125 188.625 C 205.149 181.315,205.149 169.352,205.125 162.042 C 205.101 154.731,205.081 160.712,205.081 175.333 M349.461 207.621 C 349.761 207.658,350.211 207.657,350.461 207.619 C 350.712 207.581,350.467 207.551,349.917 207.552 C 349.367 207.553,349.162 207.584,349.461 207.621 M205.081 242.250 C 205.081 256.917,205.101 262.892,205.125 255.529 C 205.149 248.165,205.149 236.165,205.125 228.862 C 205.101 221.559,205.081 227.583,205.081 242.250 M205.081 309.167 C 205.081 323.787,205.101 329.769,205.125 322.458 C 205.149 315.148,205.149 303.185,205.125 295.875 C 205.101 288.565,205.081 294.546,205.081 309.167 M137.375 365.792 C 171.452 365.815,227.215 365.815,261.292 365.792 C 295.369 365.769,267.487 365.750,199.333 365.750 C 131.179 365.750,103.298 365.769,137.375 365.792 M290.792 384.625 C 295.673 384.650,303.660 384.650,308.542 384.625 C 313.423 384.600,309.429 384.580,299.667 384.580 C 289.904 384.580,285.910 384.600,290.792 384.625 " stroke="none" fill="#b08c9a" fill-rule="evenodd"></path></g></svg>