<svg id="svg" version="1.1" xmlns="http://www.w3.org/2000/svg" xmlns:xlink="http://www.w3.org/1999/xlink" width="400" height="400" viewBox="0, 0, 400,400"><g id="svgg"><path id="path0" d="M128.333 133.334 L 128.333 151.334 202.958 151.292 L 277.583 151.250 277.626 133.292 L 277.668 115.333 203.001 115.333 L 128.333 115.333 128.333 133.334 M129.500 184.000 L 129.500 199.833 141.917 199.833 L 154.333 199.833 154.333 184.000 L 154.333 168.167 141.917 168.167 L 129.500 168.167 129.500 184.000 M170.167 184.000 L 170.167 199.833 182.583 199.833 L 195.000 199.833 195.000 184.000 L 195.000 168.167 182.583 168.167 L 170.167 168.167 170.167 184.000 M210.833 184.000 L 210.833 199.833 223.333 199.833 L 235.833 199.833 235.833 184.000 L 235.833 168.167 223.333 168.167 L 210.833 168.167 210.833 184.000 M251.500 184.000 L 251.500 199.833 264.000 199.833 L 276.500 199.833 276.500 184.000 L 276.500 168.167 264.000 168.167 L 251.500 168.167 251.500 184.000 M129.500 230.167 L 129.500 246.000 141.917 246.000 L 154.333 246.000 154.333 230.167 L 154.333 214.333 141.917 214.333 L 129.500 214.333 129.500 230.167 M170.167 230.167 L 170.167 246.000 182.583 246.000 L 195.000 246.000 195.000 230.167 L 195.000 214.333 182.583 214.333 L 170.167 214.333 170.167 230.167 M210.833 230.168 L 210.833 246.002 223.292 245.959 L 235.750 245.917 235.793 230.125 L 235.835 214.333 223.334 214.333 L 210.833 214.333 210.833 230.168 M251.541 230.125 L 251.583 245.917 264.000 245.917 L 276.417 245.917 276.459 230.125 L 276.502 214.333 264.000 214.333 L 251.498 214.333 251.541 230.125 M129.500 276.250 L 129.500 292.167 141.917 292.167 L 154.333 292.167 154.333 276.250 L 154.333 260.333 141.917 260.333 L 129.500 260.333 129.500 276.250 M170.167 276.250 L 170.167 292.167 182.583 292.167 L 195.000 292.167 195.000 276.250 L 195.000 260.333 182.583 260.333 L 170.167 260.333 170.167 276.250 M210.833 276.251 L 210.833 292.169 223.292 292.126 L 235.750 292.083 235.793 276.208 L 235.835 260.333 223.334 260.333 L 210.833 260.333 210.833 276.251 " stroke="none" fill="#fbaf6d" fill-rule="evenodd"></path></g></svg>