<?xml version="1.0" standalone="no"?>
<!DOCTYPE svg PUBLIC "-//W3C//DTD SVG 20010904//EN"
 "http://www.w3.org/TR/2001/REC-SVG-20010904/DTD/svg10.dtd">
<svg version="1.0" xmlns="http://www.w3.org/2000/svg"
 width="5556.000000pt" height="5556.000000pt" viewBox="0 0 5556.000000 5556.000000"
 preserveAspectRatio="xMidYMid meet">

<g transform="translate(0.000000,5556.000000) scale(0.100000,-0.100000)"
fill="#000000" stroke="none">
<path d="M18913 46174 c-57 -21 -129 -87 -160 -148 -48 -94 -44 -133 40 -464
78 -304 99 -356 158 -406 68 -57 107 -71 204 -71 86 0 94 2 149 35 96 58 148
148 149 254 0 68 -126 562 -165 650 -28 60 -103 129 -165 150 -57 20 -154 19
-210 0z"/>
<path d="M19960 45356 c-162 -47 -308 -92 -325 -102 -97 -55 -149 -147 -149
-264 -1 -166 109 -288 268 -297 64 -4 98 3 369 77 165 44 316 89 336 100 48
24 108 91 133 148 27 61 22 187 -10 249 -54 105 -144 163 -260 169 -60 3 -99
-5 -362 -80z"/>
<path d="M18485 44954 c-159 -41 -312 -86 -340 -98 -61 -28 -108 -74 -143
-141 -22 -42 -27 -63 -27 -130 0 -68 4 -89 28 -137 52 -107 150 -168 268 -168
71 0 634 150 695 185 202 117 197 424 -10 529 -98 51 -135 47 -471 -40z"/>
<path d="M41967 44810 c-92 -16 -178 -86 -220 -179 -15 -33 -21 -67 -21 -121
0 -90 23 -149 81 -206 22 -23 181 -122 372 -233 281 -163 331 -196 318 -206
-9 -7 -161 -97 -337 -201 -177 -104 -335 -202 -352 -219 -52 -51 -83 -129 -83
-211 1 -203 187 -346 380 -293 52 15 1180 672 1223 712 18 18 45 57 60 87 23
46 27 68 27 136 0 70 -4 88 -30 139 -16 32 -46 71 -65 86 -44 35 -1097 654
-1165 684 -60 28 -123 36 -188 25z"/>
<path d="M19351 44645 c-138 -39 -222 -145 -224 -284 0 -52 16 -126 77 -356
44 -165 88 -308 101 -331 56 -96 150 -148 265 -148 123 0 216 60 268 173 43
92 37 149 -50 476 -41 154 -83 298 -94 320 -57 121 -208 187 -343 150z"/>
<path d="M16105 42731 c-88 -27 -110 -37 -183 -85 -90 -60 -131 -98 -192 -180
-62 -84 -108 -174 -146 -286 l-29 -85 -3 -14838 c-2 -13328 0 -14845 13
-14905 59 -254 302 -497 555 -557 58 -13 1362 -15 12011 -15 10863 0 11954 1
12030 16 318 60 582 284 649 549 20 80 20 89 18 14915 l-3 14835 -24 70 c-101
300 -330 507 -631 570 -63 13 -1463 15 -12038 14 -11460 0 -11970 -1 -12027
-18z m24010 -612 c30 -15 62 -42 80 -68 l30 -43 0 -14766 0 -14767 -48 -32
c-27 -18 -65 -37 -85 -43 -25 -7 -3871 -10 -11946 -10 l-11909 0 -43 44 -44
43 2 14769 c3 13685 4 14772 19 14804 10 19 31 50 47 68 l31 32 11908 -2
11909 -3 49 -26z"/>
<path d="M17422 40131 c-89 -31 -166 -108 -191 -192 -8 -26 -11 -870 -11
-2896 0 -3249 -10 -2914 90 -3015 43 -43 69 -60 110 -72 49 -15 1007 -16
10770 -16 9763 0 10721 1 10770 16 41 12 67 29 110 72 100 101 90 -236 88
3032 l-3 2875 -27 51 c-31 59 -84 108 -147 138 l-46 21 -10730 2 c-10375 2
-10732 2 -10783 -16z m21138 -3091 l0 -2500 -10372 2 -10373 3 -3 2498 -2
2497 10375 0 10375 0 0 -2500z"/>
<path d="M17532 32789 c-66 -32 -109 -79 -142 -150 -19 -43 -20 -77 -20 -2625
0 -2882 -7 -2630 72 -2719 22 -25 64 -58 92 -73 l51 -27 2100 -3 c1844 -2
2106 0 2151 13 68 20 144 88 181 163 l28 57 3 2554 c2 2811 6 2622 -58 2716
-33 48 -95 95 -149 113 -25 9 -570 12 -2141 12 l-2107 0 -61 -31z m3908 -2784
l0 -2205 -1735 0 -1735 0 0 2205 0 2205 1735 0 1735 0 0 -2205z"/>
<path d="M23213 32804 c-57 -21 -128 -86 -161 -148 l-27 -51 0 -2595 0 -2595
24 -49 c31 -63 84 -116 147 -147 l49 -24 2120 0 2120 0 43 23 c58 31 113 88
142 147 l25 50 0 2590 0 2590 -21 46 c-30 65 -86 123 -147 153 l-51 26 -2110
-1 c-1837 0 -2116 -3 -2153 -15z m3887 -2799 l0 -2205 -1735 0 -1735 0 0 2205
0 2205 1735 0 1735 0 0 -2205z"/>
<path d="M28854 32796 c-60 -28 -115 -80 -146 -139 l-23 -42 0 -2605 0 -2605
25 -48 c28 -55 79 -106 142 -139 l43 -23 2105 -3 c2362 -3 2156 -9 2249 74 29
26 62 69 78 102 l28 57 3 2554 c2 2811 6 2622 -58 2716 -37 54 -82 90 -139
110 -38 13 -291 15 -2150 15 l-2106 0 -51 -24z m3896 -2791 l0 -2205 -1735 0
-1735 0 0 2205 0 2205 1735 0 1735 0 0 -2205z"/>
<path d="M34535 32808 c-51 -18 -113 -67 -145 -113 -64 -94 -60 95 -58 -2716
l3 -2554 28 -57 c37 -75 113 -143 181 -163 45 -13 307 -15 2151 -13 l2100 3
55 31 c32 18 71 52 93 80 73 95 67 -133 65 2719 l-3 2570 -21 46 c-30 65 -86
123 -147 153 l-51 26 -2110 -1 c-1471 0 -2120 -4 -2141 -11z m3875 -2803 l0
-2205 -1740 0 -1740 0 0 2205 0 2205 1740 0 1740 0 0 -2205z"/>
<path d="M17601 26409 c-90 -18 -163 -79 -207 -174 l-24 -50 0 -2585 0 -2585
24 -51 c28 -60 80 -115 139 -146 l42 -23 2120 -3 2120 -2 62 30 c67 33 109 77
145 150 l23 45 0 2585 0 2585 -28 57 c-32 65 -89 121 -156 152 l-46 21 -2085
1 c-1147 1 -2105 -2 -2129 -7z m3839 -2809 l0 -2210 -1735 0 -1735 0 0 2210 0
2210 1735 0 1735 0 0 -2210z"/>
<path d="M23250 26406 c-62 -16 -112 -48 -159 -102 -78 -88 -71 159 -69 -2719
l3 -2580 27 -50 c34 -65 80 -108 149 -140 l56 -25 2119 2 2119 3 46 27 c57 33
105 87 133 147 l21 46 0 2590 0 2590 -27 51 c-34 65 -77 108 -142 142 l-51 27
-2090 2 c-1630 1 -2100 -1 -2135 -11z m3850 -2806 l0 -2210 -1735 0 -1735 0 0
2210 0 2210 1735 0 1735 0 0 -2210z"/>
<path d="M28911 26409 c-90 -18 -163 -79 -207 -174 l-24 -50 0 -2585 0 -2585
24 -51 c28 -60 80 -115 139 -146 l42 -23 2130 0 c2102 0 2131 0 2170 20 54 27
115 90 145 150 l25 50 0 2585 0 2585 -28 57 c-32 65 -89 121 -156 152 l-46 21
-2085 1 c-1147 1 -2105 -2 -2129 -7z m3839 -2809 l0 -2210 -1735 0 -1735 0 0
2210 0 2210 1735 0 1735 0 0 -2210z"/>
<path d="M34560 26406 c-90 -24 -163 -87 -204 -175 l-21 -46 0 -2585 0 -2585
22 -45 c36 -72 79 -116 145 -149 l61 -31 2102 0 c2341 0 2151 -6 2237 70 24
21 57 62 73 91 l30 54 0 2595 0 2595 -27 51 c-36 68 -81 112 -148 143 l-55 26
-2085 2 c-1626 1 -2095 -1 -2130 -11z m3850 -2806 l0 -2210 -1740 0 -1740 0 0
2210 0 2210 1740 0 1740 0 0 -2210z"/>
<path d="M17590 20001 c-78 -24 -156 -87 -193 -156 l-22 -40 -3 -2590 c-2
-2889 -9 -2640 69 -2729 22 -25 65 -57 97 -73 l57 -28 2110 0 2110 0 46 21
c67 31 124 87 156 152 l28 57 0 2580 0 2580 -26 56 c-32 68 -81 118 -145 150
l-49 24 -2105 2 c-1158 1 -2116 -2 -2130 -6z m3850 -2806 l0 -2205 -1735 0
-1735 0 0 2205 0 2205 1735 0 1735 0 0 -2205z"/>
<path d="M23223 19991 c-73 -25 -136 -80 -170 -149 l-28 -57 0 -2590 0 -2590
24 -49 c32 -64 82 -113 150 -145 l56 -26 2079 -3 c2286 -3 2148 -6 2240 58 51
35 100 107 116 170 8 32 10 771 8 2610 l-3 2565 -28 57 c-32 64 -80 111 -146
142 l-46 21 -2100 2 c-1997 2 -2103 2 -2152 -16z m3877 -2796 l0 -2205 -1735
0 -1735 0 0 2205 0 2205 1735 0 1735 0 0 -2205z"/>
<path d="M28900 20001 c-55 -17 -110 -52 -148 -96 -79 -89 -72 162 -72 -2710
0 -2869 -7 -2621 71 -2709 22 -25 65 -57 97 -73 l57 -28 2110 0 2110 0 52 24
c65 29 134 101 159 166 19 49 19 111 19 2625 l0 2575 -26 56 c-32 68 -87 124
-148 153 l-46 21 -2105 2 c-1158 1 -2116 -2 -2130 -6z m3850 -2806 l0 -2205
-1735 0 -1735 0 0 2205 0 2205 1735 0 1735 0 0 -2205z"/>
<path d="M34545 19996 c-87 -27 -150 -86 -192 -181 -17 -38 -18 -159 -18
-2620 l0 -2580 24 -52 c27 -61 93 -126 159 -156 l47 -22 2079 -3 c2286 -3
2148 -6 2240 58 51 35 100 107 116 170 8 32 10 771 8 2610 l-3 2565 -28 57
c-32 64 -80 111 -146 142 l-46 21 -2100 2 c-1664 1 -2108 -1 -2140 -11z"/>
<path d="M12700 29138 c-146 -44 -269 -83 -273 -88 -5 -4 20 -101 54 -216 34
-115 69 -235 77 -266 9 -33 22 -58 29 -58 19 0 546 162 556 170 5 4 -26 120
-68 256 -42 137 -78 257 -81 267 -3 9 -11 17 -17 16 -7 0 -131 -37 -277 -81z"/>
<path d="M42415 28993 c-285 -36 -558 -202 -715 -433 -251 -370 -246 -849 14
-1213 198 -277 550 -445 887 -423 379 24 703 244 868 590 82 169 96 238 95
456 0 171 -3 192 -27 275 -88 292 -272 513 -542 648 -171 85 -395 124 -580
100z m224 -604 c109 -25 229 -118 280 -217 115 -225 28 -488 -197 -599 -73
-36 -80 -38 -176 -38 -137 1 -193 23 -291 116 -113 108 -159 238 -135 379 43
251 280 415 519 359z"/>
<path d="M13440 28769 c-146 -44 -269 -84 -274 -89 -12 -12 146 -540 162 -540
14 0 544 160 551 166 8 7 -154 544 -164 543 -5 0 -129 -36 -275 -80z"/>
<path d="M12278 28417 c-148 -45 -268 -86 -268 -92 0 -11 151 -528 156 -534 2
-2 126 33 276 78 150 44 278 81 285 81 7 0 17 -17 22 -37 22 -79 145 -488 148
-492 3 -4 558 156 574 165 5 3 -147 533 -156 542 -1 2 -130 -35 -284 -83 -155
-47 -285 -84 -290 -81 -4 3 -43 124 -86 270 -60 205 -82 266 -94 265 -9 0
-136 -37 -283 -82z"/>
<path d="M18438 11540 c-405 -74 -673 -413 -655 -829 5 -132 22 -204 73 -310
136 -290 395 -452 719 -453 145 0 241 22 361 83 154 77 266 189 348 349 52
102 72 168 85 280 44 392 -206 761 -584 865 -70 19 -278 28 -347 15z m223
-615 c128 -67 150 -226 45 -323 -38 -35 -95 -62 -131 -62 -32 0 -90 25 -121
52 -47 42 -74 97 -74 153 0 146 155 245 281 180z"/>
<path d="M38787 10760 c-86 -26 -167 -111 -197 -204 -31 -98 9 -236 89 -309
87 -78 4 -72 970 -75 l863 -2 52 23 c226 104 241 420 26 541 l-55 31 -860 2
c-473 1 -873 -2 -888 -7z"/>
<path d="M35957 9946 c-185 -67 -258 -288 -150 -459 26 -41 95 -95 146 -114
24 -9 467 -12 1777 -12 1694 -1 1746 0 1787 18 61 28 127 94 154 154 35 77 33
193 -3 263 -28 53 -85 111 -140 141 -31 17 -117 18 -1783 20 -1455 2 -1756 0
-1788 -11z"/>
</g>
</svg>
